<?xml version="1.0" encoding="UTF-8"?>
<svg width="5px" height="10px" viewBox="0 0 5 10" version="1.1" xmlns="http://www.w3.org/2000/svg" xmlns:xlink="http://www.w3.org/1999/xlink">
    <!-- Generator: Sketch 46.1 (44463) - http://www.bohemiancoding.com/sketch -->
    <title>facebook-letter-logo</title>
    <desc>Created with Sketch.</desc>
    <defs></defs>
    <g id="Page-1" stroke="none" stroke-width="1" fill="none" fill-rule="evenodd">
        <g id="Desktop-HD" transform="translate(-577.000000, -2298.000000)" fill-rule="nonzero" fill="#A1A1A1">
            <g id="Footer" transform="translate(0.000000, 2144.000000)">
                <g id="Group-2" transform="translate(577.000000, 118.000000)">
                    <g id="facebook-letter-logo" transform="translate(0.000000, 36.000000)">
                        <path d="M1.02276102,1.93271462 C1.02276102,2.18419954 1.02276102,3.30668213 1.02276102,3.30668213 L0.0161484919,3.30668213 L0.0161484919,4.98677494 L1.02276102,4.98677494 L1.02276102,9.97941995 L3.09055684,9.97941995 L3.09055684,4.98691415 L4.47814385,4.98691415 C4.47814385,4.98691415 4.60809745,4.18132251 4.67109049,3.30048724 C4.49048724,3.30048724 3.09837587,3.30048724 3.09837587,3.30048724 C3.09837587,3.30048724 3.09837587,2.32306265 3.09837587,2.15174014 C3.09837587,1.9800464 3.32382831,1.74909513 3.54665893,1.74909513 C3.76907193,1.74909513 4.23849188,1.74909513 4.67327146,1.74909513 C4.67327146,1.52034803 4.67327146,0.729976798 4.67327146,2.32018561e-05 C4.09285383,2.32018561e-05 3.432529,2.32018561e-05 3.14146172,2.32018561e-05 C0.971647332,-9.28074246e-05 1.02276102,1.68167053 1.02276102,1.93271462 Z" id="Facebook"></path>
                    </g>
                </g>
            </g>
        </g>
    </g>
</svg>