<?xml version="1.0" encoding="UTF-8"?>
<svg width="10px" height="10px" viewBox="0 0 10 10" version="1.1" xmlns="http://www.w3.org/2000/svg" xmlns:xlink="http://www.w3.org/1999/xlink">
    <!-- Generator: Sketch 46.1 (44463) - http://www.bohemiancoding.com/sketch -->
    <title>linkedin-logo</title>
    <desc>Created with Sketch.</desc>
    <defs></defs>
    <g id="Page-1" stroke="none" stroke-width="1" fill="none" fill-rule="evenodd">
        <g id="Desktop-HD" transform="translate(-592.000000, -2298.000000)" fill-rule="nonzero" fill="#A1A1A1">
            <g id="Footer" transform="translate(0.000000, 2144.000000)">
                <g id="Group-2" transform="translate(577.000000, 118.000000)">
                    <g id="linkedin-logo" transform="translate(15.000000, 36.000000)">
                        <path d="M9.96674561,6.10475435 L9.96674561,9.78952381 L7.83054931,9.78952381 L7.83054931,6.35153799 C7.83054931,5.48788792 7.52157156,4.89848053 6.74833931,4.89848053 C6.15807454,4.89848053 5.80680757,5.29569792 5.65227234,5.67993889 C5.59591762,5.81730354 5.58141184,6.00849714 5.58141184,6.20077983 L5.58141184,9.78952381 L3.4444972,9.78952381 C3.4444972,9.78952381 3.47327704,3.96670427 3.4444972,3.36341674 L5.58120329,3.36341674 L5.58120329,4.2742917 C5.57687009,4.28110432 5.57123925,4.2884499 5.56716095,4.29505396 L5.58120329,4.29505396 L5.58120329,4.2742917 C5.86508558,3.83705596 6.37206956,3.21245003 7.50685723,3.21245003 C8.91278249,3.21242686 9.96674561,4.13090229 9.96674561,6.10475435 Z M1.20919351,0.265714286 C0.478157794,0.265714286 0,0.745216065 0,1.37577724 C0,1.99259732 0.464324006,2.48665122 1.18083077,2.48665122 L1.19510483,2.48665122 C1.94029875,2.48665122 2.40374221,1.99269001 2.40374221,1.37577724 C2.38969988,0.745216065 1.94029875,0.265714286 1.20919351,0.265714286 Z M0.126913993,9.78952381 L2.26301761,9.78952381 L2.26301761,3.36341674 L0.126913993,3.36341674 L0.126913993,9.78952381 Z" id="LinkedIn"></path>
                    </g>
                </g>
            </g>
        </g>
    </g>
</svg>